<svg version="1.1" id="_x32_" xmlns="http://www.w3.org/2000/svg" width="800" height="800" viewBox="0 0 512 512" xml:space="preserve"><style>.st0{fill:#000}</style><path class="st0" d="M497.063 303.594H377.859c-11.125 0-21.063 4.469-28.359 11.75-7.281 7.281-11.75 17.25-11.75 28.359s4.469 21.063 11.75 28.359c7.297 7.281 17.234 11.734 28.359 11.75h119.203c5.156 0 9.328-4.188 9.328-9.344v-61.547c.001-5.14-4.171-9.327-9.327-9.327m-118.516 53.469c-7.391 0-13.359-5.969-13.359-13.359s5.969-13.359 13.359-13.359c7.375 0 13.375 5.969 13.375 13.359s-6 13.359-13.375 13.359M229.984 84.188c-7.203 0-13.063 5.844-13.063 13.063s5.859 13.063 13.063 13.063c7.219 0 13.078-5.844 13.078-13.063s-5.859-13.063-13.078-13.063m154.047-34.719V107.5h44.703c-.406-27.703-19.187-50.906-44.703-58.031"/><path class="st0" d="M313.078 343.703c0-35.781 29-64.781 64.781-64.797H484.89v-76.984c0-32.078-24.719-58.359-56.125-60.938v-.25h-69.563V0h-258.5v140.734h-18.78c-9.188 0-16.625-7.438-16.625-16.609 0-7.438 4.891-13.656 11.609-15.781V50.906C37.156 62.125 7.703 97.813 5.828 140.734h-.219v273.36C5.609 468.172 49.438 512 103.5 512h320.203c33.781 0 61.188-27.406 61.188-61.188v-42.328H377.859c-35.781-.015-64.781-29-64.781-64.781m147.125-83.984c0 4.531-3.672 8.219-8.219 8.219s-8.234-3.688-8.234-8.219v-12.344c0-4.547 3.688-8.219 8.234-8.219s8.219 3.672 8.219 8.219zm-29.234-76.375c2.313-3.906 7.375-5.188 11.266-2.875 8.984 5.359 15.469 14.391 17.391 24.984a8.243 8.243 0 0 1-6.641 9.563c-4.469.797-8.734-2.172-9.563-6.641-1-5.75-4.641-10.813-9.578-13.75-3.906-2.312-5.203-7.375-2.875-11.281m-65.235-7.985h24.328a8.225 8.225 0 0 1 8.234 8.234c0 4.531-3.688 8.219-8.234 8.219h-24.328a8.226 8.226 0 1 1 0-16.453M131.156 71.5c22.281-2.234 40.141-19.266 43.844-41.063h109.906c3.703 21.797 21.641 38.828 43.922 41.063v69.234H131.156zM76.891 472.75c-1.219 4.375-5.766 6.922-10.125 5.688a72.9 72.9 0 0 1-24.078-11.875c-3.641-2.734-4.391-7.891-1.656-11.531 2.719-3.625 7.875-4.375 11.516-1.656a56.3 56.3 0 0 0 18.641 9.219c4.389 1.233 6.936 5.78 5.702 10.155M98 191.813H73.656c-4.547 0-8.234-3.688-8.234-8.219a8.225 8.225 0 0 1 8.234-8.234H98c4.531 0 8.219 3.672 8.219 8.234 0 4.531-3.688 8.219-8.219 8.219m42.641 289.343h-23.953c-4.547 0-8.234-3.688-8.234-8.234s3.688-8.234 8.234-8.234h23.953c4.547 0 8.219 3.688 8.219 8.234s-3.672 8.234-8.219 8.234M171 191.813h-24.344c-4.531 0-8.219-3.688-8.219-8.219 0-4.563 3.688-8.234 8.219-8.234H171a8.225 8.225 0 0 1 8.234 8.234c0 4.531-3.687 8.219-8.234 8.219m41.516 289.343h-23.953c-4.547 0-8.219-3.688-8.219-8.234s3.672-8.234 8.219-8.234h23.953c4.547 0 8.234 3.688 8.234 8.234s-3.687 8.234-8.234 8.234m31.515-289.343h-24.344a8.22 8.22 0 0 1-8.219-8.219 8.21 8.21 0 0 1 8.219-8.234h24.344a8.225 8.225 0 0 1 8.234 8.234c.001 4.531-3.687 8.219-8.234 8.219m40.375 289.343h-23.953c-4.547 0-8.234-3.688-8.234-8.234s3.688-8.234 8.234-8.234h23.953c4.547 0 8.234 3.688 8.234 8.234s-3.687 8.234-8.234 8.234m.078-297.562a8.225 8.225 0 0 1 8.234-8.234h24.344c4.531 0 8.219 3.672 8.219 8.234 0 4.531-3.688 8.219-8.219 8.219h-24.344c-4.546 0-8.234-3.688-8.234-8.219m71.813 297.562h-23.953c-4.547 0-8.234-3.688-8.234-8.234s3.688-8.234 8.234-8.234h23.953c4.547 0 8.219 3.688 8.219 8.234s-3.672 8.234-8.219 8.234m87.453-56.906c0-4.547 3.688-8.219 8.234-8.219s8.219 3.672 8.219 8.219v12.344c0 4.531-3.672 8.219-8.219 8.219s-8.234-3.688-8.234-8.219zm-39.531 40.438h19.484c1.078 0 2.125-.078 3.156-.25 4.484-.703 8.719 2.344 9.422 6.828.719 4.484-2.328 8.703-6.813 9.422a35.4 35.4 0 0 1-5.766.469h-19.484a8.235 8.235 0 0 1 .001-16.469"/></svg>