<svg width="800" height="800" viewBox="0 0 1024 1024" xmlns="http://www.w3.org/2000/svg"><path d="M640.172 171.124c119.859 14.637 199.51 49.612 199.51 76.982 0 15.683-30.577 37.475-87.407 54.605-62.809 18.932-148.567 29.865-240.273 29.865-91.711 0-177.469-10.933-240.277-29.865-56.827-17.13-87.403-38.921-87.403-54.605 0-29.366 89.458-66.158 219.676-79.227 11.254-1.13 19.462-11.169 18.332-22.423s-11.169-19.462-22.423-18.332c-151.876 15.243-256.546 58.29-256.546 119.982 0 75.871 164.41 125.43 368.64 125.43 204.223 0 368.64-49.559 368.64-125.43 0-58.893-94.601-100.433-235.505-117.64-11.227-1.371-21.44 6.619-22.812 17.846s6.619 21.44 17.846 22.812zm199.27 725.213c0 40.635-147.078 85.422-327.291 85.422S184.86 936.972 184.86 896.337c0-.463.028-.955.086-1.491 1.218-11.245-6.91-21.348-18.155-22.567s-21.348 6.91-22.567 18.155a55 55 0 0 0-.324 5.902c0 76.346 164.316 126.382 368.251 126.382s368.251-50.036 368.251-126.382c0-11.311-9.169-20.48-20.48-20.48s-20.48 9.169-20.48 20.48z"/><path d="M143.697 253.367v646.461c0 11.311 9.169 20.48 20.48 20.48s20.48-9.169 20.48-20.48V253.367c0-11.311-9.169-20.48-20.48-20.48s-20.48 9.169-20.48 20.48m695.917 0v646.461c0 11.311 9.169 20.48 20.48 20.48s20.48-9.169 20.48-20.48V253.367c0-11.311-9.169-20.48-20.48-20.48s-20.48 9.169-20.48 20.48m-155.482-4.616c3.451 13.322-7.557 24.218-24.453 24.218h-267.94c-16.896 0-27.894-10.895-24.443-24.218 3.441-13.322 20.091-24.218 36.987-24.218h242.862c16.896 0 33.536 10.895 36.987 24.218"/><path d="M610.493 117.674c-6.258-38.164-37.244-69.15-75.408-75.408a92.68 92.68 0 0 0-107.066 107.067c6.258 38.163 37.244 69.149 75.408 75.407a92.682 92.682 0 0 0 107.066-107.066m40.42-6.629c14.954 91.175-62.939 169.069-154.115 154.115-55.512-9.102-100.097-53.687-109.199-109.196C372.632 64.789 450.535-13.109 541.713 1.846c55.512 9.102 100.097 53.687 109.2 109.2zm20.256 427.849c47.893 47.893 47.893 125.538 0 173.419L544.774 838.708c-17.963 17.982-47.121 17.982-65.077.007L353.296 712.314c-47.895-47.883-47.895-125.527-.004-173.419 43.311-43.322 110.971-47.458 158.939-12.411 47.968-35.047 115.628-30.911 158.937 12.41zM497.75 567.857c-31.897-31.897-83.604-31.897-115.493 0-31.897 31.897-31.897 83.604 0 115.493l126.41 126.41a5.05 5.05 0 0 0 7.136-.007l126.404-126.404c31.895-31.887 31.895-83.594-.004-115.493-31.887-31.895-83.594-31.895-115.491.002-7.998 7.998-20.965 7.998-28.963 0z"/></svg>