<svg width="48" height="48" viewBox="0 0 48 48" xmlns="http://www.w3.org/2000/svg"><path d="M48 3.5a2 2 0 0 0-2-2H32.5A12.93 12.93 0 0 0 24 4.95a11.2 11.2 0 0 0-7.81-3.45H2a2 2 0 0 0-2 2v34.77a2 2 0 0 0 2 2l14.64.15a7.59 7.59 0 0 1 5.86 2.72A1.92 1.92 0 0 0 24 44a2 2 0 0 0 .22 0 2 2 0 0 0 .24 0 2 2 0 0 0 1.6-.83 7.79 7.79 0 0 1 6-2.72H46a2 2 0 0 0 2-2z" fill="#e7e9e9"/><path d="M24.6 8.82a.8.8 0 1 0-1.6 0l.4 28.33a.82.82 0 0 0 .8.82.82.82 0 0 0 .8-.82Z" fill="#a1a3a4"/><path d="M17 15H6a1 1 0 0 1 0-2h11a1 1 0 0 1 0 2" fill="#38b1e7"/><path d="M17 24h-4a1 1 0 0 1 0-2h4a1 1 0 0 1 0 2m0 4h-4a1 1 0 0 1 0-2h4a1 1 0 0 1 0 2" fill="#9ca3a7"/><circle cx="7.5" cy="24.5" r="2.5" fill="#ec5044"/><path d="M17 19H6a1 1 0 0 1 0-2h11a1 1 0 0 1 0 2" fill="#9ca3a7"/><path d="M46 39.42H32.06a12.7 12.7 0 0 0-7.56 2.45 12.7 12.7 0 0 0-7.56-2.45H2a2 2 0 0 0 0 4h14.94c2.32 0 4.83.91 6 2.42a1.84 1.84 0 0 0 1.59.62h.62a1.5 1.5 0 0 0 1-.56c1.14-1.5 3.65-2.42 6-2.42H46a2 2 0 0 0 0-4.06" fill="#458eaf"/></svg>