<svg width="800" height="800" viewBox="0 0 32 32" data-name="Layer 1" xmlns="http://www.w3.org/2000/svg"><path d="m26.076 18.5-2.828-2.828 1.768-1.768a3 3 0 0 0 0-4.243 3.07 3.07 0 0 0-4.243 0l-2.829-2.828a7 7 0 0 1 9.9 9.9Z" fill="#4285f4"/><path fill="#4285f4" d="m13.349 11.429 4.95-4.95 2.828 2.828-4.95 4.95z"/><path d="m6.277 18.5-2.12-2.121a7 7 0 1 1 9.899-9.899l2.12 2.121-2.827 2.828-2.122-2.121a3.07 3.07 0 0 0-4.242 0 3 3 0 0 0 0 4.243l2.12 2.12Z" fill="#ea4435"/><path fill="#fbc02d" d="m6.278 18.5 7.071-7.071 2.828 2.828-7.07 7.071z"/><path fill="#00ac47" d="m16.177 28.399-7.071-7.071 2.828-2.828 4.243 4.243 7.071-7.071 2.828 2.828z"/></svg>