<svg width="800" height="800" viewBox="0 0 24 24" xmlns="http://www.w3.org/2000/svg"><path d="M1 1037.4v12c0 1.1.895 2 2 2h18c1.105 0 2-.9 2-2v-12z" fill="#f39c12" transform="translate(0 -1028.4)"/><path d="M1 1036.4v12c0 1.1.895 2 2 2h18c1.105 0 2-.9 2-2v-12z" fill="#f1c40f" transform="translate(0 -1028.4)"/><path d="M2 1034.4c-1.105 0-2 .9-2 2v2h24v-2c0-1.1-.895-2-2-2z" fill="#f1c40f" transform="translate(0 -1028.4)"/><path fill="#e74c3c" d="M9 1033.4h6v18H9z" transform="translate(0 -1028.4)"/><path d="M7.885 1029.4c-.999-.1-1.973.4-2.508 1.2-.778 1.2-.313 2.7 1.034 3.4.433.3.897.4 1.364.4h8.447c.467 0 .942-.1 1.375-.4 1.347-.7 1.801-2.2 1.023-3.4-.777-1.2-2.492-1.6-3.839-.9-.433.2-.773.5-1.011.9h-.022c-.032.1-.06.1-.088.2l-1.661 2.5-1.661-2.5c-.028-.1-.056-.1-.088-.2h-.022a2.2 2.2 0 0 0-1.001-.9c-.421-.2-.888-.3-1.342-.3m-.165 1.2c.27 0 .55.1.803.2.085 0 .16.1.23.1.05.1.09.1.133.2h.033c.022 0 .046.1.066.1h.043c.017.1.042.1.056.1l1.166 1.8H7.566c-.064 0-.124 0-.187-.1-.09 0-.18 0-.264-.1-.169 0-.319-.2-.43-.3-.33-.4-.379-.9-.087-1.4.243-.3.67-.6 1.122-.6m8.568 0c.451 0 .879.3 1.122.6.292.5.232 1-.099 1.4-.11.1-.249.3-.418.3-.084.1-.174.1-.264.1-.062.1-.134.1-.198.1h-2.683l1.165-1.8c.014 0 .039 0 .055-.1h.011c.003 0-.002 0 0 0h.033c.02 0 .044-.1.066-.1h.033c.042-.1.094-.1.143-.2.071 0 .147-.1.231-.1.253-.1.533-.2.803-.2" fill="#c0392b" transform="translate(0 -1028.4)"/><path fill="#f39c12" d="M1 1038.4h22v3H1z" transform="translate(0 -1028.4)"/><path fill="#c0392b" d="M9 1038.4h6v3H9zM9 1050.4h6v1H9z" transform="translate(0 -1028.4)"/><path fill="#e67e22" d="M1 1038.4h8v1H1zM15 1038.4h8v1h-8z" transform="translate(0 -1028.4)"/></svg>