<svg xmlns="http://www.w3.org/2000/svg" viewBox="0 0 512 512" xml:space="preserve"><path style="fill:#e2804f" d="M7.827 375.608h112.384v103.994H7.827z"/><path style="fill:#f2bf7e" d="M199.419 375.608h112.384v103.994H199.419z"/><path style="fill:#e2804f" d="M391.001 375.608h112.384v103.994H391.001z"/><path style="fill:#f2bf7e" d="M72.352 32.403h367.969v223.975H72.352z"/><path style="fill:#d4e4ac" d="M416.357 199.623c-15.654 0-32.566 16.41-32.566 32.064H127.816c0-15.654-15.142-32.064-31.84-32.064V87.633c16.697 0 31.84-16.659 31.84-32.313h255.975c0 15.654 16.912 32.313 32.566 32.313z"/><path style="fill:#e2804f" d="M255.803 55.637c-48.597 0-87.992 39.394-87.992 87.992s39.395 87.992 87.992 87.992 87.992-39.394 87.992-87.992-39.395-87.992-87.992-87.992m0 151.985c-35.343 0-63.994-28.652-63.994-63.994s28.651-63.994 63.994-63.994 63.994 28.652 63.994 63.994-28.651 63.994-63.994 63.994"/><circle style="fill:#fff" cx="255.804" cy="143.629" r="63.993"/><path d="M255.803 215.449c-39.602 0-71.821-32.219-71.821-71.821s32.219-71.82 71.821-71.82 71.821 32.219 71.821 71.82c0 39.602-32.219 71.821-71.821 71.821m0-127.987c-30.971 0-56.167 25.196-56.167 56.166s25.197 56.167 56.167 56.167 56.167-25.197 56.167-56.167-25.196-56.166-56.167-56.166"/><path style="fill:#f2bf7e" d="M251.28 180.906v-9.108c-6.43-.289-12.663-2.015-16.311-4.124l2.882-11.226c4.031 2.203 9.687 4.218 15.928 4.218 5.468 0 9.21-2.109 9.21-5.944 0-3.648-3.07-5.953-10.171-8.351-10.265-3.453-17.271-8.25-17.271-17.553 0-8.445 5.953-15.061 16.217-17.076v-9.117h9.398v8.445c6.43.289 10.749 1.625 13.913 3.164l-2.781 10.843c-2.492-1.055-6.905-3.265-13.819-3.265-6.233 0-8.25 2.687-8.25 5.374 0 3.164 3.359 5.179 11.515 8.25 11.413 4.031 16.022 9.304 16.022 17.943 0 8.539-6.047 15.827-17.076 17.748v9.781h-9.406z"/><path d="M456.014 367.779v-15.035H440.36v15.035h-56.396v119.644H512V367.779zm40.332 103.991h-96.728v-88.337h96.728zM262.95 352.744h-15.654v15.035h-55.314v119.644h128.036V367.779h-57.069zm41.414 119.026h-96.728v-88.337h96.728zM70.93 352.744H55.276v15.035H0v119.644h128.036V367.779H70.93zm41.452 119.026H15.654v-88.337h96.728zM391.311 55.843v-7.827H119.978v7.827c0 10.788-10.829 23.481-23.481 23.481H88.67v128.361h7.827c10.575 0 23.481 11.19 23.481 24.524v7.827h271.333v-7.827c0-11.57 13.208-24.524 24.524-24.524h7.827V79.324h-7.827c-11.316 0-24.524-12.283-24.524-23.481M261.264 63.67c41.663 2.819 74.704 37.592 74.704 79.958 0 44.203-35.962 80.165-80.164 80.165s-80.164-35.962-80.164-80.165c0-42.366 33.041-77.139 74.704-79.958zm-156.94 129.1V94.55c14.654-3.419 27.099-16.038 30.438-30.879h68.303c-25.937 17.164-43.08 46.594-43.08 79.958 0 33.882 17.677 63.713 44.294 80.755h-69.521c-3.372-14.972-15.954-28.027-30.434-31.614m303.685.054c-14.356 3.715-27.438 17.002-31.057 31.559h-69.623c26.616-17.042 44.294-46.873 44.294-80.755 0-33.364-17.144-62.794-43.08-79.958h68.405c3.586 14.434 16.533 27.287 31.062 30.828z"/><path d="M262.95 312.044v-47.835h185.191V24.576H64.522v239.633h182.774v47.835H55.276v32.351H70.93v-16.697h176.366v16.697h15.654v-16.697h177.41v16.697h15.654v-32.351zM80.176 40.23h352.311v208.325H80.176z"/></svg>