<svg width="800" height="800" viewBox="0 0 64 64" xmlns="http://www.w3.org/2000/svg"><path d="M16 28h8.042A5.96 5.96 0 0 1 30 33.958V36h-8.042A5.96 5.96 0 0 1 16 30.042z" style="fill:#027de5"/><path d="M39.958 28H48v2.042A5.96 5.96 0 0 1 42.042 36H34v-2.042A5.96 5.96 0 0 1 39.958 28" style="fill:#027de5" transform="rotate(-180 41 32)"/><path d="M46 28v.042A5.96 5.96 0 0 1 40.042 34H34V22a2 2 0 0 0-4 0v12h-6.042A5.96 5.96 0 0 1 18 28.042V28h-2v2.042A5.96 5.96 0 0 0 21.958 36H30v7h4v-7h8.042A5.96 5.96 0 0 0 48 30.042V28Z" style="fill:#0468ad"/><circle cx="32" cy="13" r="10" style="fill:#027de5"/><path style="fill:#cfcfd9" d="M42 61H22l-3.198-14.924h26.396z"/><path d="M26.737 61H22l-3.2-14.924h26.4A18.88 18.88 0 0 1 26.737 61" style="fill:#d9dae2"/><path style="fill:#e5e6eb" d="M16 41h32v6H16z"/><path style="fill:#cfcfd9" d="M44 41h4v6h-4z"/><path style="fill:#444" d="M28 55h2v2h-2zm6 0h2v2h-2z"/><path d="M48 19a2 2 0 0 1 2 2v2h-2a2 2 0 0 1-2-2 2 2 0 0 1 2-2" style="fill:#cceaff" transform="rotate(-135 48 21)"/><path d="M48 8a2 2 0 0 1 2 2v2h-2a2 2 0 0 1-2-2 2 2 0 0 1 2-2" style="fill:#cceaff" transform="rotate(-135 48 10)"/><path d="M17 14.828a2 2 0 0 1 2 2v2h-2a2 2 0 0 1-2-2 2 2 0 0 1 2-2" style="fill:#cceaff" transform="rotate(-135 17 16.829)"/><path d="M17 3.828a2 2 0 0 1 2 2v2h-2a2 2 0 0 1-2-2 2 2 0 0 1 2-2" style="fill:#cceaff" transform="rotate(-135 17 5.829)"/><path style="fill:#027de5" d="M30 21h2v13h-2z"/><path d="M37.992 5.008a9.986 9.986 0 0 1-13.984 13.984A9.991 9.991 0 1 0 37.992 5.008" style="fill:#0468ad"/><path d="M31.344 10.49a1.025 1.025 0 0 1-.069-1.512 1.05 1.05 0 0 1 1.45 0l1.568 1.568 1.414-1.414-1.568-1.569A3 3 0 0 0 33 6.859V3.05q-.493-.049-1-.05c-.507-.001-.671.018-1 .05v3.808a3 3 0 0 0-1.14.705 3.027 3.027 0 0 0 .2 4.464l2.593 2.161a1.025 1.025 0 0 1 .07 1.511 1.027 1.027 0 0 1-1.451 0l-1.568-1.568-1.414 1.414 1.568 1.569a3 3 0 0 0 1.139.7v5.136q.493.049 1 .05c.507.001.671-.018 1-.05v-5.132a3 3 0 0 0 1.14-.7 3.03 3.03 0 0 0-.2-4.464Z" style="fill:#fff"/><path d="M48 40H16a1 1 0 0 0-1 1v6a1 1 0 0 0 1 1h2.191l2.831 13.21A1 1 0 0 0 22 62h20a1 1 0 0 0 .978-.79L45.809 48H48a1 1 0 0 0 1-1v-6a1 1 0 0 0-1-1m-6.809 20H22.809l-2.572-12h23.526ZM47 46H17v-4h30Z"/><path d="M28 55h2v2h-2zm6 0h2v2h-2z"/></svg>