<svg xmlns="http://www.w3.org/2000/svg" viewBox="0 0 512 512" xml:space="preserve"><path style="fill:#2c3e50" d="M104 198.352 93.44 186.32 258.816 41.296l159.616 145.12-10.752 11.856L258.624 62.736z"/><circle style="fill:#2c3e50" cx="258.72" cy="64.464" r="37.472"/><path style="fill:#e04f5f" d="M0 177.264h512v307.744H0z"/><path style="fill:#fff" d="M76.64 278.352c7.76-1.264 19.36-2.208 32.208-2.208 15.872 0 26.992 2.368 34.592 8.4 6.352 5.072 9.84 12.544 9.84 22.368 0 13.664-9.664 23.008-18.896 26.336v.48c7.472 3.008 11.6 10.16 14.304 19.984 3.328 12.064 6.656 26.032 8.72 30.16h-24.752c-1.744-3.008-4.288-11.744-7.472-24.928-2.848-13.328-7.456-16.976-17.296-17.12h-7.296v42.048H76.64zm23.952 46.016h9.536c12.048 0 19.184-6.032 19.184-15.392 0-9.824-6.656-14.752-17.76-14.912-5.872 0-9.2.464-10.96.784zM234.4 338.656h-39.36v25.392h43.952v19.84h-68.24V276.944h66.016v19.824H195.04v22.224h39.36zm21.136 45.232V276.944h28.256l22.224 39.184c6.336 11.264 12.704 24.592 17.456 36.656h.48c-1.6-14.128-2.064-28.56-2.064-44.592v-31.248h22.208v106.96H318.72l-22.864-41.264c-6.336-11.424-13.328-25.216-18.576-37.76l-.464.16c.64 14.128.96 29.2.96 46.656v32.224h-22.24zm130.16-86.64H356.96v-20.32h82.208v20.32h-29.184v86.64h-24.288z"/></svg>