<svg xmlns="http://www.w3.org/2000/svg" viewBox="0 0 512 512" xml:space="preserve"><path style="fill:#f6f6f7" d="M245.664 15.858 8.017 196.142v307.841h495.967V196.142L266.336 15.858a17.1 17.1 0 0 0-20.672 0"/><path style="fill:#d9dcdf" d="M346.176 76.426H165.824L8.017 196.142v17.102h495.966v-17.102z"/><path style="fill:#c4df64" d="M42.221 102.079h427.557v273.637H42.221z"/><path style="fill:#a6c451" d="M435.574 298.756c-23.613 0-42.756 19.143-42.756 42.756H119.182c0-23.613-19.143-42.756-42.756-42.756V179.04c23.613 0 42.756-19.143 42.756-42.756h273.637c0 23.613 19.143 42.756 42.756 42.756v119.716z"/><circle style="fill:#ffc44f" cx="256" cy="238.898" r="76.96"/><path style="fill:#f6f6f7" d="M503.983 196.142 8.017 503.983h495.966z"/><path style="fill:#d9dcdf" d="M285.622 331.677 8.017 503.983h495.966v-38.354z"/><path style="fill:#f6f6f7" d="m8.017 196.142 495.966 307.841H8.017z"/><path d="M340.977 238.898c0-46.857-38.121-84.977-84.977-84.977s-84.977 38.12-84.977 84.977 38.121 84.977 84.977 84.977 84.977-38.12 84.977-84.977m-153.921 0c0-38.015 30.928-68.944 68.944-68.944s68.944 30.928 68.944 68.944-30.929 68.943-68.944 68.943-68.944-30.928-68.944-68.943"/><path d="M264.017 290.205V279.8c9.93-3.354 17.102-12.752 17.102-23.8 0-13.851-11.268-25.119-25.119-25.119-5.01 0-9.086-4.076-9.086-9.086s4.076-9.086 9.086-9.086h17.102c4.427 0 8.017-3.588 8.017-8.017s-3.589-8.017-8.017-8.017h-9.086v-9.086a8.017 8.017 0 0 0-8.017-8.017 8.017 8.017 0 0 0-8.017 8.017v10.405c-9.93 3.354-17.102 12.752-17.102 23.8 0 13.851 11.268 25.119 25.119 25.119 5.01 0 9.086 4.076 9.086 9.086s-4.076 9.086-9.086 9.086h-17.102c-4.427 0-8.017 3.588-8.017 8.017s3.589 8.017 8.017 8.017h9.086v9.086a8.018 8.018 0 0 0 16.034 0"/><path d="M511.26 507.332c.48-1.041.74-2.2.74-3.349V196.142a8.1 8.1 0 0 0-3.171-6.388l-31.033-23.541v-64.134a8.017 8.017 0 0 0-8.017-8.017h-87.09L271.182 9.47c-8.938-6.781-21.424-6.781-30.362 0L129.312 94.063h-87.09a8.017 8.017 0 0 0-8.017 8.017v64.134l-31.034 23.54A8.1 8.1 0 0 0 0 196.142v307.841A8.016 8.016 0 0 0 8.017 512h342.046c4.427 0 8.017-3.588 8.017-8.017s-3.589-8.017-8.017-8.017H16.033V210.553l459.833 285.414h-83.048c-4.427 0-8.017 3.588-8.017 8.017s3.589 8.017 8.017 8.017H503.96c3.113-.001 5.995-1.85 7.3-4.669M271.201 350.063l224.766-139.51v279.02zM84.443 234.144v-47.721c21.588-3.439 38.684-20.535 42.124-42.123h258.868c3.439 21.588 20.535 38.684 42.124 42.123v47.721L256.001 340.628zm393.352-47.806 12.052 9.142-12.052 7.481zM50.238 110.096h163.006a8.017 8.017 0 0 0 8.017-8.017 8.017 8.017 0 0 0-8.017-8.017H155.84l94.669-71.817a9.114 9.114 0 0 1 10.982 0l94.669 71.817H256a8.017 8.017 0 0 0-8.017 8.017 8.017 8.017 0 0 0 8.017 8.017h205.762v102.817l-18.171 11.279V179.04a8.017 8.017 0 0 0-8.017-8.017c-19.155 0-34.739-15.583-34.739-34.739a8.017 8.017 0 0 0-8.017-8.017H119.182a8.017 8.017 0 0 0-8.017 8.017c0 19.156-15.584 34.739-34.739 34.739a8.017 8.017 0 0 0-8.017 8.017v45.152l-18.171-11.279zm-16.033 92.866-12.052-7.481 12.052-9.142z"/><path d="M341.511 33.136h9.086v9.086a8.017 8.017 0 0 0 8.017 8.017 8.017 8.017 0 0 0 8.017-8.017v-9.086h9.086c4.427 0 8.017-3.588 8.017-8.017s-3.589-8.017-8.017-8.017h-9.086V8.017A8.017 8.017 0 0 0 358.614 0a8.017 8.017 0 0 0-8.017 8.017v9.086h-9.086a8.017 8.017 0 1 0 0 16.033M67.875 58.789h9.086v9.086a8.017 8.017 0 0 0 8.017 8.017 8.017 8.017 0 0 0 8.017-8.017v-9.086h9.086c4.427 0 8.017-3.588 8.017-8.017s-3.589-8.017-8.017-8.017h-9.086V33.67a8.017 8.017 0 0 0-8.017-8.017 8.017 8.017 0 0 0-8.017 8.017v9.086h-9.086a8.017 8.017 0 1 0 0 16.033m342.046 0h9.086v9.086a8.017 8.017 0 0 0 8.017 8.017 8.017 8.017 0 0 0 8.017-8.017v-9.086h9.086c4.427 0 8.017-3.588 8.017-8.017s-3.589-8.017-8.017-8.017h-9.086V33.67a8.017 8.017 0 0 0-8.017-8.017 8.017 8.017 0 0 0-8.017 8.017v9.086h-9.086a8.017 8.017 0 1 0 0 16.033M136.284 33.136h9.086v9.086a8.017 8.017 0 0 0 8.017 8.017 8.017 8.017 0 0 0 8.017-8.017v-9.086h9.086c4.427 0 8.017-3.588 8.017-8.017s-3.589-8.017-8.017-8.017h-9.086V8.017A8.017 8.017 0 0 0 153.387 0a8.017 8.017 0 0 0-8.017 8.017v9.086h-9.086a8.017 8.017 0 1 0 0 16.033"/></svg>